<mxfile host="app.diagrams.net" agent="Mozilla/5.0 (X11; Ubuntu; Linux x86_64; rv:129.0) Gecko/20100101 Firefox/129.0" version="24.7.6">
  <diagram name="Page-1" id="aofUAoIxy0gO5n2D3n70">
    <mxGraphModel dx="2284" dy="790" grid="1" gridSize="10" guides="1" tooltips="1" connect="1" arrows="1" fold="1" page="1" pageScale="1" pageWidth="850" pageHeight="1100" math="0" shadow="0">
      <root>
        <mxCell id="0" />
        <mxCell id="1" parent="0" />
        <mxCell id="2vchEzSn1MHYRZdjoCuu-12" value="" style="edgeStyle=orthogonalEdgeStyle;rounded=0;orthogonalLoop=1;jettySize=auto;html=1;" edge="1" parent="1" source="2vchEzSn1MHYRZdjoCuu-8" target="2vchEzSn1MHYRZdjoCuu-9">
          <mxGeometry relative="1" as="geometry" />
        </mxCell>
        <mxCell id="2vchEzSn1MHYRZdjoCuu-8" value="&lt;div&gt;RS&lt;/div&gt;&lt;div&gt;(Remote Station)&lt;br&gt;&lt;/div&gt;" style="ellipse;whiteSpace=wrap;html=1;aspect=fixed;" vertex="1" parent="1">
          <mxGeometry x="20" y="375" width="80" height="80" as="geometry" />
        </mxCell>
        <mxCell id="2vchEzSn1MHYRZdjoCuu-19" style="edgeStyle=orthogonalEdgeStyle;rounded=0;orthogonalLoop=1;jettySize=auto;html=1;exitX=1;exitY=0.5;exitDx=0;exitDy=0;entryX=0;entryY=0;entryDx=0;entryDy=0;" edge="1" parent="1" source="2vchEzSn1MHYRZdjoCuu-9" target="2vchEzSn1MHYRZdjoCuu-17">
          <mxGeometry relative="1" as="geometry" />
        </mxCell>
        <mxCell id="2vchEzSn1MHYRZdjoCuu-9" value="Human Input" style="rounded=0;whiteSpace=wrap;html=1;" vertex="1" parent="1">
          <mxGeometry x="150" y="400" width="130" height="30" as="geometry" />
        </mxCell>
        <mxCell id="2vchEzSn1MHYRZdjoCuu-20" style="edgeStyle=orthogonalEdgeStyle;rounded=0;orthogonalLoop=1;jettySize=auto;html=1;exitX=1;exitY=0.5;exitDx=0;exitDy=0;entryX=0;entryY=1;entryDx=0;entryDy=0;" edge="1" parent="1" source="2vchEzSn1MHYRZdjoCuu-11" target="2vchEzSn1MHYRZdjoCuu-17">
          <mxGeometry relative="1" as="geometry" />
        </mxCell>
        <mxCell id="2vchEzSn1MHYRZdjoCuu-14" value="Autonomous Package" style="swimlane;whiteSpace=wrap;html=1;dashed=1;" vertex="1" parent="1">
          <mxGeometry x="112.5" y="550" width="227.5" height="260" as="geometry" />
        </mxCell>
        <mxCell id="2vchEzSn1MHYRZdjoCuu-11" value="Autonomous Input" style="rounded=0;whiteSpace=wrap;html=1;" vertex="1" parent="2vchEzSn1MHYRZdjoCuu-14">
          <mxGeometry x="35" y="50" width="130" height="30" as="geometry" />
        </mxCell>
        <mxCell id="2vchEzSn1MHYRZdjoCuu-64" style="edgeStyle=orthogonalEdgeStyle;rounded=0;orthogonalLoop=1;jettySize=auto;html=1;entryX=0.5;entryY=1;entryDx=0;entryDy=0;" edge="1" parent="2vchEzSn1MHYRZdjoCuu-14" source="2vchEzSn1MHYRZdjoCuu-13" target="2vchEzSn1MHYRZdjoCuu-11">
          <mxGeometry relative="1" as="geometry" />
        </mxCell>
        <mxCell id="2vchEzSn1MHYRZdjoCuu-13" value="Autonomous" style="ellipse;whiteSpace=wrap;html=1;aspect=fixed;" vertex="1" parent="2vchEzSn1MHYRZdjoCuu-14">
          <mxGeometry x="60" y="110" width="80" height="80" as="geometry" />
        </mxCell>
        <mxCell id="2vchEzSn1MHYRZdjoCuu-66" value="NOTE: Autonomous will be made of multiple nodes. This is placeholder" style="text;html=1;align=center;verticalAlign=middle;whiteSpace=wrap;rounded=0;" vertex="1" parent="2vchEzSn1MHYRZdjoCuu-14">
          <mxGeometry x="2.5" y="190" width="200" height="40" as="geometry" />
        </mxCell>
        <mxCell id="2vchEzSn1MHYRZdjoCuu-25" style="edgeStyle=orthogonalEdgeStyle;rounded=0;orthogonalLoop=1;jettySize=auto;html=1;exitX=1;exitY=0.5;exitDx=0;exitDy=0;entryX=0;entryY=0.5;entryDx=0;entryDy=0;" edge="1" parent="1" source="2vchEzSn1MHYRZdjoCuu-17" target="2vchEzSn1MHYRZdjoCuu-24">
          <mxGeometry relative="1" as="geometry" />
        </mxCell>
        <mxCell id="2vchEzSn1MHYRZdjoCuu-17" value="Priority Node" style="ellipse;whiteSpace=wrap;html=1;aspect=fixed;" vertex="1" parent="1">
          <mxGeometry x="345" y="430" width="80" height="80" as="geometry" />
        </mxCell>
        <mxCell id="2vchEzSn1MHYRZdjoCuu-29" style="edgeStyle=orthogonalEdgeStyle;rounded=0;orthogonalLoop=1;jettySize=auto;html=1;exitX=0;exitY=0.5;exitDx=0;exitDy=0;entryX=0.5;entryY=1;entryDx=0;entryDy=0;" edge="1" parent="1" source="2vchEzSn1MHYRZdjoCuu-21" target="2vchEzSn1MHYRZdjoCuu-28">
          <mxGeometry relative="1" as="geometry" />
        </mxCell>
        <mxCell id="2vchEzSn1MHYRZdjoCuu-34" style="edgeStyle=orthogonalEdgeStyle;rounded=0;orthogonalLoop=1;jettySize=auto;html=1;exitX=0.5;exitY=1;exitDx=0;exitDy=0;entryX=1;entryY=0.5;entryDx=0;entryDy=0;" edge="1" parent="1" source="2vchEzSn1MHYRZdjoCuu-32" target="2vchEzSn1MHYRZdjoCuu-21">
          <mxGeometry relative="1" as="geometry">
            <Array as="points">
              <mxPoint x="725" y="390" />
            </Array>
          </mxGeometry>
        </mxCell>
        <mxCell id="2vchEzSn1MHYRZdjoCuu-50" style="edgeStyle=orthogonalEdgeStyle;rounded=0;orthogonalLoop=1;jettySize=auto;html=1;entryX=0.5;entryY=1;entryDx=0;entryDy=0;" edge="1" parent="1" source="2vchEzSn1MHYRZdjoCuu-21" target="2vchEzSn1MHYRZdjoCuu-49">
          <mxGeometry relative="1" as="geometry" />
        </mxCell>
        <mxCell id="2vchEzSn1MHYRZdjoCuu-21" value="Control Que" style="ellipse;whiteSpace=wrap;html=1;aspect=fixed;" vertex="1" parent="1">
          <mxGeometry x="630" y="350" width="80" height="80" as="geometry" />
        </mxCell>
        <mxCell id="2vchEzSn1MHYRZdjoCuu-26" style="edgeStyle=orthogonalEdgeStyle;rounded=0;orthogonalLoop=1;jettySize=auto;html=1;exitX=1;exitY=0.5;exitDx=0;exitDy=0;entryX=0.5;entryY=1;entryDx=0;entryDy=0;" edge="1" parent="1" source="2vchEzSn1MHYRZdjoCuu-24" target="2vchEzSn1MHYRZdjoCuu-21">
          <mxGeometry relative="1" as="geometry" />
        </mxCell>
        <mxCell id="2vchEzSn1MHYRZdjoCuu-24" value="Desired Movement" style="rounded=0;whiteSpace=wrap;html=1;" vertex="1" parent="1">
          <mxGeometry x="480" y="455" width="130" height="30" as="geometry" />
        </mxCell>
        <mxCell id="2vchEzSn1MHYRZdjoCuu-33" style="edgeStyle=orthogonalEdgeStyle;rounded=0;orthogonalLoop=1;jettySize=auto;html=1;exitX=1;exitY=1;exitDx=0;exitDy=0;entryX=0.5;entryY=0;entryDx=0;entryDy=0;" edge="1" parent="1" source="2vchEzSn1MHYRZdjoCuu-27" target="2vchEzSn1MHYRZdjoCuu-32">
          <mxGeometry relative="1" as="geometry">
            <Array as="points">
              <mxPoint x="698" y="210" />
              <mxPoint x="725" y="210" />
            </Array>
          </mxGeometry>
        </mxCell>
        <mxCell id="2vchEzSn1MHYRZdjoCuu-73" style="edgeStyle=orthogonalEdgeStyle;rounded=0;orthogonalLoop=1;jettySize=auto;html=1;exitX=1;exitY=0;exitDx=0;exitDy=0;entryX=0;entryY=0.5;entryDx=0;entryDy=0;" edge="1" parent="1" source="2vchEzSn1MHYRZdjoCuu-27" target="2vchEzSn1MHYRZdjoCuu-70">
          <mxGeometry relative="1" as="geometry" />
        </mxCell>
        <mxCell id="2vchEzSn1MHYRZdjoCuu-27" value="&lt;div&gt;RIO Virtualization 1&lt;/div&gt;" style="ellipse;whiteSpace=wrap;html=1;aspect=fixed;" vertex="1" parent="1">
          <mxGeometry x="630" y="110" width="80" height="80" as="geometry" />
        </mxCell>
        <mxCell id="2vchEzSn1MHYRZdjoCuu-30" style="edgeStyle=orthogonalEdgeStyle;rounded=0;orthogonalLoop=1;jettySize=auto;html=1;exitX=0.5;exitY=0;exitDx=0;exitDy=0;entryX=0;entryY=1;entryDx=0;entryDy=0;" edge="1" parent="1" source="2vchEzSn1MHYRZdjoCuu-28" target="2vchEzSn1MHYRZdjoCuu-27">
          <mxGeometry relative="1" as="geometry" />
        </mxCell>
        <mxCell id="2vchEzSn1MHYRZdjoCuu-28" value="&lt;div&gt;Set&lt;/div&gt;&lt;div&gt;State&lt;/div&gt;" style="rhombus;whiteSpace=wrap;html=1;" vertex="1" parent="1">
          <mxGeometry x="570" y="230" width="80" height="80" as="geometry" />
        </mxCell>
        <mxCell id="2vchEzSn1MHYRZdjoCuu-32" value="&lt;div&gt;Current State&lt;/div&gt;" style="rounded=0;whiteSpace=wrap;html=1;" vertex="1" parent="1">
          <mxGeometry x="660" y="255" width="130" height="30" as="geometry" />
        </mxCell>
        <mxCell id="2vchEzSn1MHYRZdjoCuu-35" value="ROI Out" style="triangle;whiteSpace=wrap;html=1;fillColor=#f8cecc;strokeColor=#b85450;" vertex="1" parent="1">
          <mxGeometry x="1210" y="50" width="60" height="50" as="geometry" />
        </mxCell>
        <mxCell id="2vchEzSn1MHYRZdjoCuu-36" value="&lt;div&gt;ROI In&lt;/div&gt;" style="triangle;whiteSpace=wrap;html=1;fillColor=#d5e8d4;strokeColor=#82b366;direction=west;" vertex="1" parent="1">
          <mxGeometry x="1210" y="140" width="60" height="50" as="geometry" />
        </mxCell>
        <mxCell id="2vchEzSn1MHYRZdjoCuu-44" value="Diagram Key" style="swimlane;fontStyle=0;childLayout=stackLayout;horizontal=1;startSize=30;horizontalStack=0;resizeParent=1;resizeParentMax=0;resizeLast=0;collapsible=1;marginBottom=0;whiteSpace=wrap;html=1;" vertex="1" parent="1">
          <mxGeometry x="480" y="600" width="210" height="180" as="geometry" />
        </mxCell>
        <mxCell id="2vchEzSn1MHYRZdjoCuu-45" value="&lt;div&gt;&lt;b&gt;&lt;u&gt;Circle:&lt;/u&gt;&lt;/b&gt; Node&lt;/div&gt;" style="text;strokeColor=none;fillColor=none;align=left;verticalAlign=middle;spacingLeft=4;spacingRight=4;overflow=hidden;points=[[0,0.5],[1,0.5]];portConstraint=eastwest;rotatable=0;whiteSpace=wrap;html=1;" vertex="1" parent="2vchEzSn1MHYRZdjoCuu-44">
          <mxGeometry y="30" width="210" height="30" as="geometry" />
        </mxCell>
        <mxCell id="2vchEzSn1MHYRZdjoCuu-46" value="&lt;b&gt;&lt;u&gt;Rectangle:&lt;/u&gt;&lt;/b&gt; Topic" style="text;strokeColor=none;fillColor=none;align=left;verticalAlign=middle;spacingLeft=4;spacingRight=4;overflow=hidden;points=[[0,0.5],[1,0.5]];portConstraint=eastwest;rotatable=0;whiteSpace=wrap;html=1;" vertex="1" parent="2vchEzSn1MHYRZdjoCuu-44">
          <mxGeometry y="60" width="210" height="30" as="geometry" />
        </mxCell>
        <mxCell id="2vchEzSn1MHYRZdjoCuu-47" value="&lt;b&gt;&lt;u&gt;Diamond:&lt;/u&gt;&lt;/b&gt; Service" style="text;strokeColor=none;fillColor=none;align=left;verticalAlign=middle;spacingLeft=4;spacingRight=4;overflow=hidden;points=[[0,0.5],[1,0.5]];portConstraint=eastwest;rotatable=0;whiteSpace=wrap;html=1;" vertex="1" parent="2vchEzSn1MHYRZdjoCuu-44">
          <mxGeometry y="90" width="210" height="30" as="geometry" />
        </mxCell>
        <mxCell id="2vchEzSn1MHYRZdjoCuu-48" value="&lt;b&gt;&lt;u&gt;Triangle:&lt;/u&gt;&lt;/b&gt; Call to outside of ROS" style="text;strokeColor=none;fillColor=none;align=left;verticalAlign=middle;spacingLeft=4;spacingRight=4;overflow=hidden;points=[[0,0.5],[1,0.5]];portConstraint=eastwest;rotatable=0;whiteSpace=wrap;html=1;" vertex="1" parent="2vchEzSn1MHYRZdjoCuu-44">
          <mxGeometry y="120" width="210" height="30" as="geometry" />
        </mxCell>
        <mxCell id="2vchEzSn1MHYRZdjoCuu-63" value="&lt;b&gt;&lt;u&gt;Dotted Box:&lt;/u&gt;&lt;/b&gt; Package Outline" style="text;strokeColor=none;fillColor=none;align=left;verticalAlign=middle;spacingLeft=4;spacingRight=4;overflow=hidden;points=[[0,0.5],[1,0.5]];portConstraint=eastwest;rotatable=0;whiteSpace=wrap;html=1;" vertex="1" parent="2vchEzSn1MHYRZdjoCuu-44">
          <mxGeometry y="150" width="210" height="30" as="geometry" />
        </mxCell>
        <mxCell id="2vchEzSn1MHYRZdjoCuu-51" style="edgeStyle=orthogonalEdgeStyle;rounded=0;orthogonalLoop=1;jettySize=auto;html=1;" edge="1" parent="1" source="2vchEzSn1MHYRZdjoCuu-49">
          <mxGeometry relative="1" as="geometry">
            <mxPoint x="610" y="210" as="targetPoint" />
            <Array as="points">
              <mxPoint x="530" y="210" />
            </Array>
          </mxGeometry>
        </mxCell>
        <mxCell id="2vchEzSn1MHYRZdjoCuu-49" value="&lt;div&gt;Set&lt;/div&gt;&lt;div&gt;Mode&lt;/div&gt;" style="rhombus;whiteSpace=wrap;html=1;" vertex="1" parent="1">
          <mxGeometry x="490" y="230" width="80" height="80" as="geometry" />
        </mxCell>
        <mxCell id="2vchEzSn1MHYRZdjoCuu-54" style="edgeStyle=orthogonalEdgeStyle;rounded=0;orthogonalLoop=1;jettySize=auto;html=1;" edge="1" parent="1" source="2vchEzSn1MHYRZdjoCuu-52">
          <mxGeometry relative="1" as="geometry">
            <mxPoint x="720" y="390" as="targetPoint" />
            <Array as="points">
              <mxPoint x="865" y="390" />
            </Array>
          </mxGeometry>
        </mxCell>
        <mxCell id="2vchEzSn1MHYRZdjoCuu-56" style="edgeStyle=orthogonalEdgeStyle;rounded=0;orthogonalLoop=1;jettySize=auto;html=1;" edge="1" parent="1" target="2vchEzSn1MHYRZdjoCuu-52">
          <mxGeometry relative="1" as="geometry">
            <mxPoint x="720" y="210" as="sourcePoint" />
            <Array as="points">
              <mxPoint x="865" y="210" />
            </Array>
          </mxGeometry>
        </mxCell>
        <mxCell id="2vchEzSn1MHYRZdjoCuu-52" value="&lt;div&gt;Node Name&lt;br&gt;&lt;/div&gt;" style="rounded=0;whiteSpace=wrap;html=1;" vertex="1" parent="1">
          <mxGeometry x="800" y="255" width="130" height="30" as="geometry" />
        </mxCell>
        <mxCell id="2vchEzSn1MHYRZdjoCuu-55" style="edgeStyle=orthogonalEdgeStyle;rounded=0;orthogonalLoop=1;jettySize=auto;html=1;exitX=0.5;exitY=1;exitDx=0;exitDy=0;" edge="1" parent="1" source="2vchEzSn1MHYRZdjoCuu-53">
          <mxGeometry relative="1" as="geometry">
            <mxPoint x="860" y="390" as="targetPoint" />
            <Array as="points">
              <mxPoint x="1005" y="390" />
            </Array>
          </mxGeometry>
        </mxCell>
        <mxCell id="2vchEzSn1MHYRZdjoCuu-57" style="edgeStyle=orthogonalEdgeStyle;rounded=0;orthogonalLoop=1;jettySize=auto;html=1;" edge="1" parent="1" target="2vchEzSn1MHYRZdjoCuu-53">
          <mxGeometry relative="1" as="geometry">
            <mxPoint x="870" y="210" as="sourcePoint" />
            <Array as="points">
              <mxPoint x="1005" y="210" />
            </Array>
          </mxGeometry>
        </mxCell>
        <mxCell id="2vchEzSn1MHYRZdjoCuu-53" value="&lt;div&gt;Node Heatlh&lt;/div&gt;" style="rounded=0;whiteSpace=wrap;html=1;" vertex="1" parent="1">
          <mxGeometry x="940" y="255" width="130" height="30" as="geometry" />
        </mxCell>
        <mxCell id="2vchEzSn1MHYRZdjoCuu-62" value="Que Package" style="swimlane;whiteSpace=wrap;html=1;direction=west;glass=0;fillColor=default;dashed=1;" vertex="1" parent="1">
          <mxGeometry x="330" y="340" width="780" height="220" as="geometry" />
        </mxCell>
        <mxCell id="2vchEzSn1MHYRZdjoCuu-65" value="RS Package" style="swimlane;whiteSpace=wrap;html=1;dashed=1;" vertex="1" parent="1">
          <mxGeometry x="-10" y="320" width="310" height="200" as="geometry" />
        </mxCell>
        <mxCell id="2vchEzSn1MHYRZdjoCuu-67" value="NOTE: The MCU Package Will be used 3 times, one package structure for each MCU" style="text;html=1;align=center;verticalAlign=middle;whiteSpace=wrap;rounded=0;" vertex="1" parent="1">
          <mxGeometry x="-220" y="70" width="480" height="30" as="geometry" />
        </mxCell>
        <mxCell id="2vchEzSn1MHYRZdjoCuu-72" style="edgeStyle=orthogonalEdgeStyle;rounded=0;orthogonalLoop=1;jettySize=auto;html=1;entryX=0.988;entryY=0.638;entryDx=0;entryDy=0;entryPerimeter=0;" edge="1" parent="1" source="2vchEzSn1MHYRZdjoCuu-69" target="2vchEzSn1MHYRZdjoCuu-27">
          <mxGeometry relative="1" as="geometry" />
        </mxCell>
        <mxCell id="2vchEzSn1MHYRZdjoCuu-61" value="&lt;div&gt;MCU Package&lt;/div&gt;" style="swimlane;whiteSpace=wrap;html=1;dashed=1;" vertex="1" parent="1">
          <mxGeometry x="320" y="30" width="780" height="290" as="geometry" />
        </mxCell>
        <mxCell id="2vchEzSn1MHYRZdjoCuu-71" style="edgeStyle=orthogonalEdgeStyle;rounded=0;orthogonalLoop=1;jettySize=auto;html=1;exitX=0;exitY=1;exitDx=0;exitDy=0;entryX=1;entryY=0.5;entryDx=0;entryDy=0;" edge="1" parent="2vchEzSn1MHYRZdjoCuu-61" source="2vchEzSn1MHYRZdjoCuu-68" target="2vchEzSn1MHYRZdjoCuu-69">
          <mxGeometry relative="1" as="geometry" />
        </mxCell>
        <mxCell id="2vchEzSn1MHYRZdjoCuu-68" value="Transport Agent 1" style="ellipse;whiteSpace=wrap;html=1;aspect=fixed;movable=1;resizable=1;rotatable=1;deletable=1;editable=1;locked=0;connectable=1;" vertex="1" parent="2vchEzSn1MHYRZdjoCuu-61">
          <mxGeometry x="670" y="80" width="80" height="80" as="geometry" />
        </mxCell>
        <mxCell id="2vchEzSn1MHYRZdjoCuu-69" value="Response" style="rounded=0;whiteSpace=wrap;html=1;movable=1;resizable=1;rotatable=1;deletable=1;editable=1;locked=0;connectable=1;" vertex="1" parent="2vchEzSn1MHYRZdjoCuu-61">
          <mxGeometry x="505" y="130" width="130" height="30" as="geometry" />
        </mxCell>
        <mxCell id="2vchEzSn1MHYRZdjoCuu-70" value="Que Packet Service" style="rhombus;whiteSpace=wrap;html=1;movable=1;resizable=1;rotatable=1;deletable=1;editable=1;locked=0;connectable=1;" vertex="1" parent="2vchEzSn1MHYRZdjoCuu-61">
          <mxGeometry x="530" y="30" width="80" height="80" as="geometry" />
        </mxCell>
        <mxCell id="2vchEzSn1MHYRZdjoCuu-74" style="edgeStyle=orthogonalEdgeStyle;rounded=0;orthogonalLoop=1;jettySize=auto;html=1;exitX=1;exitY=0.5;exitDx=0;exitDy=0;entryX=0.038;entryY=0.313;entryDx=0;entryDy=0;entryPerimeter=0;" edge="1" parent="2vchEzSn1MHYRZdjoCuu-61" source="2vchEzSn1MHYRZdjoCuu-70" target="2vchEzSn1MHYRZdjoCuu-68">
          <mxGeometry relative="1" as="geometry" />
        </mxCell>
        <mxCell id="2vchEzSn1MHYRZdjoCuu-76" style="edgeStyle=orthogonalEdgeStyle;rounded=0;orthogonalLoop=1;jettySize=auto;html=1;exitX=1;exitY=0;exitDx=0;exitDy=0;entryX=0;entryY=0.5;entryDx=0;entryDy=0;shape=flexArrow;fillColor=#f8cecc;strokeColor=#b85450;" edge="1" parent="1" source="2vchEzSn1MHYRZdjoCuu-68" target="2vchEzSn1MHYRZdjoCuu-35">
          <mxGeometry relative="1" as="geometry" />
        </mxCell>
        <mxCell id="2vchEzSn1MHYRZdjoCuu-78" style="edgeStyle=orthogonalEdgeStyle;rounded=0;orthogonalLoop=1;jettySize=auto;html=1;entryX=0.875;entryY=0.688;entryDx=0;entryDy=0;entryPerimeter=0;shape=flexArrow;fillColor=#d5e8d4;strokeColor=#82b366;" edge="1" parent="1" source="2vchEzSn1MHYRZdjoCuu-36" target="2vchEzSn1MHYRZdjoCuu-68">
          <mxGeometry relative="1" as="geometry" />
        </mxCell>
      </root>
    </mxGraphModel>
  </diagram>
</mxfile>
